<svg width="20" height="20" viewBox="0 0 20 20" fill="none" xmlns="http://www.w3.org/2000/svg">
<g clip-path="url(#clip0_30164_3654)">
<path d="M2.4934 13.6183C2.61593 13.9274 2.64321 14.2661 2.57173 14.5908L1.68423 17.3325C1.65564 17.4715 1.66303 17.6156 1.70571 17.751C1.7484 17.8863 1.82495 18.0086 1.92812 18.1061C2.03129 18.2036 2.15766 18.2731 2.29523 18.3081C2.43281 18.343 2.57704 18.3423 2.71423 18.3058L5.5584 17.4742C5.86483 17.4134 6.18218 17.44 6.47423 17.5508C8.25372 18.3819 10.2695 18.5577 12.166 18.0473C14.0625 17.5369 15.7178 16.3731 16.8398 14.7611C17.9618 13.1492 18.4785 11.1928 18.2986 9.23713C18.1188 7.28142 17.254 5.45207 15.8568 4.07184C14.4596 2.69161 12.6198 1.84921 10.6621 1.69326C8.70429 1.5373 6.75435 2.07783 5.15627 3.21946C3.55819 4.36109 2.41468 6.03046 1.92748 7.93304C1.44028 9.83562 1.64071 11.8491 2.4934 13.6183Z" stroke="#606067" stroke-width="1.66667" stroke-linecap="round" stroke-linejoin="round"/>
</g>
<defs>
<clipPath id="clip0_30164_3654">
<rect width="20" height="20" fill="white"/>
</clipPath>
</defs>
</svg>
